<svg width="10" height="10" viewBox="0 0 35 32" fill="none" xmlns="http://www.w3.org/2000/svg">
<path d="M33.6189 22.686H10.3857L11.5522 20.2702L30.9347 20.2345C31.5901 20.2345 32.1519 19.7585 32.269 19.1L34.9532 3.82397C35.0234 3.42333 34.9181 3.01078 34.6606 2.69741C34.5333 2.54318 34.3746 2.41895 34.1954 2.33333C34.0162 2.2477 33.8208 2.20274 33.6228 2.20156L8.96556 2.11826L8.75488 1.1107C8.62223 0.46808 8.05261 0 7.40497 0H1.37722C1.01196 0 0.661655 0.147528 0.403377 0.41013C0.145099 0.672732 0 1.0289 0 1.40027C0 1.77165 0.145099 2.12781 0.403377 2.39041C0.661655 2.65302 1.01196 2.80055 1.37722 2.80055H6.28915L7.2099 7.25127L9.47665 18.4098L6.55836 23.2533C6.4068 23.4612 6.31552 23.7082 6.29484 23.9661C6.27415 24.2241 6.32489 24.4828 6.44131 24.713C6.6754 25.1851 7.14748 25.4826 7.67027 25.4826H10.1204C9.59805 26.188 9.31592 27.0471 9.31669 27.9301C9.31669 30.1753 11.1114 32 13.3196 32C15.5278 32 17.3225 30.1753 17.3225 27.9301C17.3225 27.0455 17.0338 26.1847 16.5188 25.4826H22.804C22.2817 26.188 21.9996 27.0471 22.0003 27.9301C22.0003 30.1753 23.795 32 26.0032 32C28.2115 32 30.0061 30.1753 30.0061 27.9301C30.0061 27.0455 29.7174 26.1847 29.2024 25.4826H33.6228C34.3797 25.4826 35 24.8558 35 24.0823C34.9977 23.7113 34.8512 23.3563 34.5925 23.0947C34.3338 22.8331 33.9838 22.6862 33.6189 22.686V22.686ZM9.53907 4.87914L32.0037 4.95451L29.8033 17.4816L12.1569 17.5133L9.53907 4.87914ZM13.3196 29.1836C12.6407 29.1836 12.0867 28.6203 12.0867 27.9301C12.0867 27.2399 12.6407 26.6766 13.3196 26.6766C13.9984 26.6766 14.5524 27.2399 14.5524 27.9301C14.5524 28.2625 14.4226 28.5814 14.1914 28.8164C13.9601 29.0515 13.6466 29.1836 13.3196 29.1836V29.1836ZM26.0032 29.1836C25.3244 29.1836 24.7704 28.6203 24.7704 27.9301C24.7704 27.2399 25.3244 26.6766 26.0032 26.6766C26.6821 26.6766 27.2361 27.2399 27.2361 27.9301C27.2361 28.2625 27.1062 28.5814 26.875 28.8164C26.6438 29.0515 26.3302 29.1836 26.0032 29.1836V29.1836Z" fill="#000"/>
</svg>
